<svg id="wave" style="transform:rotate(0deg); transition: 0.3s" viewBox="0 0 1440 230" version="1.1" xmlns="http://www.w3.org/2000/svg"><defs><linearGradient id="sw-gradient-0" x1="0" x2="0" y1="1" y2="0"><stop stop-color="rgba(156, 56, 72, 1)" offset="0%"></stop><stop stop-color="rgba(107.329, 43.363, 53.598, 1)" offset="100%"></stop></linearGradient></defs><path style="transform:translate(0, 0px); opacity:1" fill="url(#sw-gradient-0)" d="M0,184L48,187.8C96,192,192,199,288,184C384,169,480,130,576,122.7C672,115,768,138,864,122.7C960,107,1056,54,1152,34.5C1248,15,1344,31,1440,57.5C1536,84,1632,123,1728,122.7C1824,123,1920,84,2016,84.3C2112,84,2208,123,2304,138C2400,153,2496,146,2592,118.8C2688,92,2784,46,2880,34.5C2976,23,3072,46,3168,80.5C3264,115,3360,161,3456,180.2C3552,199,3648,192,3744,180.2C3840,169,3936,153,4032,130.3C4128,107,4224,77,4320,69C4416,61,4512,77,4608,69C4704,61,4800,31,4896,26.8C4992,23,5088,46,5184,49.8C5280,54,5376,38,5472,61.3C5568,84,5664,146,5760,176.3C5856,207,5952,207,6048,180.2C6144,153,6240,100,6336,69C6432,38,6528,31,6624,46C6720,61,6816,100,6864,118.8L6912,138L6912,230L6864,230C6816,230,6720,230,6624,230C6528,230,6432,230,6336,230C6240,230,6144,230,6048,230C5952,230,5856,230,5760,230C5664,230,5568,230,5472,230C5376,230,5280,230,5184,230C5088,230,4992,230,4896,230C4800,230,4704,230,4608,230C4512,230,4416,230,4320,230C4224,230,4128,230,4032,230C3936,230,3840,230,3744,230C3648,230,3552,230,3456,230C3360,230,3264,230,3168,230C3072,230,2976,230,2880,230C2784,230,2688,230,2592,230C2496,230,2400,230,2304,230C2208,230,2112,230,2016,230C1920,230,1824,230,1728,230C1632,230,1536,230,1440,230C1344,230,1248,230,1152,230C1056,230,960,230,864,230C768,230,672,230,576,230C480,230,384,230,288,230C192,230,96,230,48,230L0,230Z"></path></svg>