<svg width="40" height="40" viewBox="0 0 40 40" fill="none" xmlns="http://www.w3.org/2000/svg">
<path d="M8.30487 11.995C10.3189 11.995 11.9515 10.3623 11.9515 8.34833C11.9515 6.33433 10.3189 4.70166 8.30487 4.70166C6.29087 4.70166 4.6582 6.33433 4.6582 8.34833C4.6582 10.3623 6.29087 11.995 8.30487 11.995Z" fill="black"/>
<path d="M15.3949 14.7583V34.99H21.6765V24.985C21.6765 22.345 22.1732 19.7883 25.4465 19.7883C28.6749 19.7883 28.7149 22.8067 28.7149 25.1517V34.9917H34.9999V23.8967C34.9999 18.4467 33.8265 14.2583 27.4565 14.2583C24.3982 14.2583 22.3482 15.9367 21.5099 17.525H21.4249V14.7583H15.3949ZM5.1582 14.7583H11.4499V34.99H5.1582V14.7583Z" fill="black"/>
<rect x="0.75" y="0.75" width="38.5" height="38.5" stroke="black" stroke-width="1.5"/>
</svg>
