<svg width="50" height="50" viewBox="0 0 50 50" fill="none" xmlns="http://www.w3.org/2000/svg">
<path d="M40.6243 45.3125H40.3586C9.65551 43.5469 5.29613 17.6406 4.68676 9.73438C4.63766 9.11966 4.71033 8.50129 4.90062 7.9147C5.09092 7.32812 5.39508 6.78485 5.79569 6.31602C6.1963 5.84719 6.68549 5.46201 7.23521 5.18256C7.78494 4.90311 8.3844 4.73488 8.99926 4.6875H17.6086C18.2345 4.6869 18.8461 4.87424 19.3643 5.22525C19.8825 5.57627 20.2833 6.0748 20.5149 6.65625L22.8899 12.5C23.1186 13.068 23.1753 13.6907 23.0531 14.2908C22.9309 14.8908 22.635 15.4417 22.2024 15.875L18.8743 19.2344C19.3941 22.1887 20.8089 24.912 22.9272 27.0359C25.0455 29.1598 27.7651 30.5817 30.718 31.1094L34.1086 27.75C34.5485 27.3221 35.1045 27.0332 35.7075 26.9193C36.3105 26.8054 36.9336 26.8715 37.4993 27.1094L43.3899 29.4688C43.9626 29.7076 44.4512 30.1116 44.7934 30.6292C45.1357 31.1467 45.3162 31.7545 45.3118 32.375V40.625C45.3118 41.8682 44.8179 43.0605 43.9388 43.9396C43.0597 44.8186 41.8675 45.3125 40.6243 45.3125ZM9.37426 7.8125C8.95986 7.8125 8.56243 7.97712 8.2694 8.27015C7.97638 8.56317 7.81176 8.9606 7.81176 9.375V9.5C8.53051 18.75 13.1399 40.625 40.5305 42.1875C40.7358 42.2002 40.9415 42.1722 41.136 42.1052C41.3304 42.0382 41.5097 41.9335 41.6636 41.797C41.8175 41.6606 41.9429 41.4951 42.0327 41.31C42.1224 41.125 42.1748 40.9241 42.1868 40.7188V32.375L36.2961 30.0156L31.8118 34.4688L31.0618 34.375C17.468 32.6719 15.6243 19.0781 15.6243 18.9375L15.5305 18.1875L19.968 13.7031L17.6243 7.8125H9.37426Z" fill="black"/>
</svg>
